<?xml version="1.0" encoding="utf-8"?>
<!-- Generator: Adobe Illustrator 18.0.0, SVG Export Plug-In . SVG Version: 6.00 Build 0)  -->
<!DOCTYPE svg PUBLIC "-//W3C//DTD SVG 1.1//EN" "http://www.w3.org/Graphics/SVG/1.1/DTD/svg11.dtd">
<svg version="1.1" id="Layer_1" xmlns="http://www.w3.org/2000/svg" xmlns:xlink="http://www.w3.org/1999/xlink" x="0px" y="0px"
	 viewBox="0 0 512 512" enable-background="new 0 0 512 512" xml:space="preserve">
<path fill="#00796B" d="M155,495.8v1.7l1-0.7v1.7l1-0.7v1.7l1-0.7v1.7l1-0.7v1.7l1-0.7v1.7l1-0.7v1.7l1-0.7v1.7l1-0.7v1.7l1-0.7v1.7
	l1-0.7v1.7l1-0.7v1.7l1-0.7v1.7l1-0.7v1.7l1-0.7v1.7l1-0.7v1.7l1-0.7v0.7h341V208.6c0,0,0,0,0,0c-0.3-0.4-0.6-0.7-1-1
	c-0.3-0.4-0.6-0.7-1-1c-0.3-0.4-0.6-0.7-1-1c-0.3-0.4-0.6-0.7-1-1c-0.3-0.4-0.6-0.7-1-1c-0.3-0.4-0.6-0.7-1-1c-0.3-0.4-0.6-0.7-1-1
	c-0.3-0.4-0.6-0.7-1-1c-0.3-0.4-0.6-0.7-1-1c-0.3-0.4-0.6-0.7-1-1c-0.3-0.4-0.6-0.7-1-1c-0.3-0.4-0.6-0.7-1-1c-0.3-0.4-0.6-0.7-1-1
	c-0.3-0.4-0.6-0.7-1-1c-0.3-0.4-0.6-0.7-1-1c-0.3-0.4-0.6-0.7-1-1c-0.3-0.4-0.6-0.7-1-1c-0.3-0.4-0.6-0.7-1-1c-0.3-0.4-0.6-0.7-1-1
	c-0.3-0.4-0.6-0.7-1-1c-0.3-0.4-0.6-0.7-1-1c-0.3-0.4-0.6-0.7-1-1c-0.3-0.4-0.6-0.7-1-1c-0.3-0.4-0.6-0.7-1-1c-0.3-0.4-0.6-0.7-1-1
	c-0.3-0.4-0.6-0.7-1-1c-0.3-0.4-0.6-0.7-1-1c-0.3-0.4-0.6-0.7-1-1c-0.3-0.4-0.6-0.7-1-1c-0.3-0.4-0.6-0.7-1-1c-0.3-0.4-0.6-0.7-1-1
	c-0.3-0.4-0.6-0.7-1-1c-0.3-0.4-0.6-0.7-1-1c-0.3-0.4-0.6-0.7-1-1c-0.3-0.4-0.6-0.7-1-1c-0.3-0.4-0.6-0.7-1-1c-0.3-0.4-0.6-0.7-1-1
	c-0.3-0.4-0.6-0.7-1-1c-0.3-0.4-0.6-0.7-1-1c-0.3-0.4-0.6-0.7-1-1c-0.3-0.4-0.6-0.7-1-1c-0.3-0.4-0.6-0.7-1-1c-0.3-0.4-0.6-0.7-1-1
	c-0.3-0.4-0.6-0.7-1-1c-0.3-0.4-0.6-0.7-1-1c-0.3-0.4-0.6-0.7-1-1c-0.3-0.4-0.6-0.7-1-1c-0.3-0.4-0.6-0.7-1-1c-0.3-0.4-0.6-0.7-1-1
	c-0.3-0.4-0.6-0.7-1-1c-0.3-0.4-0.6-0.7-1-1c-0.3-0.4-0.6-0.7-1-1c-0.3-0.4-0.6-0.7-1-1c-0.3-0.4-0.6-0.7-1-1c-0.3-0.4-0.6-0.7-1-1
	c-0.3-0.4-0.6-0.7-1-1c-0.3-0.4-0.6-0.7-1-1c-0.3-0.4-0.6-0.7-1-1c-0.3-0.4-0.6-0.7-1-1c-0.3-0.4-0.6-0.7-1-1c-0.3-0.4-0.6-0.7-1-1
	c-0.3-0.4-0.6-0.7-1-1c-0.3-0.4-0.6-0.7-1-1c-0.3-0.4-0.6-0.7-1-1c-0.3-0.4-0.6-0.7-1-1c-0.3-0.4-0.6-0.7-1-1c-0.3-0.4-0.6-0.7-1-1
	c-0.3-0.4-0.6-0.7-1-1c-0.3-0.4-0.6-0.7-1-1c-0.3-0.4-0.6-0.7-1-1c-0.3-0.4-0.6-0.7-1-1c-0.3-0.4-0.6-0.7-1-1c-0.3-0.4-0.6-0.7-1-1
	c-0.3-0.4-0.6-0.7-1-1c-0.3-0.4-0.6-0.7-1-1c-0.3-0.4-0.6-0.7-1-1c-0.3-0.4-0.6-0.7-1-1c-0.3-0.4-0.6-0.7-1-1c-0.3-0.4-0.6-0.7-1-1
	c-0.3-0.4-0.6-0.7-1-1c-0.3-0.4-0.6-0.7-1-1c-0.3-0.4-0.6-0.7-1-1c-0.3-0.4-0.6-0.7-1-1c-0.3-0.4-0.6-0.7-1-1c-0.3-0.4-0.6-0.7-1-1
	c-0.3-0.4-0.6-0.7-1-1c-0.3-0.4-0.6-0.7-1-1c-0.3-0.4-0.6-0.7-1-1c-0.3-0.4-0.6-0.7-1-1c-0.3-0.4-0.6-0.7-1-1c-0.3-0.4-0.6-0.7-1-1
	c-0.3-0.4-0.6-0.7-1-1c-0.3-0.4-0.6-0.7-1-1c-0.3-0.4-0.6-0.7-1-1c-0.3-0.4-0.6-0.7-1-1c-0.3-0.4-0.6-0.7-1-1c-2.2-2.5-5.4-4-9-4H53
	c-6.6,0-12,5.4-12,12v263l1-0.7v1.7l1-0.7v1.7l1-0.7v1.7l1-0.7v1.7l1-0.7v1.7l1-0.7v1.7l1-0.7v1.7l1-0.7v1.7l1-0.7v1.7l1-0.7v1.7
	l1-0.7v1.7l1-0.7v1.7l1-0.7v1.7l1-0.7v1.7l1-0.7v1.7l1-0.7v1.7l1-0.7v1.7l1-0.7v1.7l1-0.7v1.7l1-0.7v1.7l1-0.7v1.7l1-0.7v1.7l1-0.7
	v1.7l1-0.7v1.7l1-0.7v1.7l1-0.7v1.7l1-0.7v1.7l1-0.7v1.7l1-0.7v1.7l1-0.7v1.7l1-0.7v1.7l1-0.7v1.7l1-0.7v1.7l1-0.7v1.7l1-0.7v1.7
	l1-0.7v1.7l1-0.7v1.7l1-0.7v1.7l1-0.7v1.7l1-0.7v1.7l1-0.7v1.7l1-0.7v1.7l1-0.7v1.7l1-0.7v1.7l1-0.7v1.7l1-0.7v1.7l1-0.7v1.7l1-0.7
	v1.7l1-0.7v1.7l1-0.7v1.7l1-0.7v1.7l1-0.7v1.7l1-0.7v1.7l1-0.7v1.7l1-0.7v1.7l1-0.7v1.7l1-0.7v1.7l1-0.7v1.7l1-0.7v1.7l1-0.7v1.7
	l1-0.7v1.7l1-0.7v1.7l1-0.7v1.7l1-0.7v1.7l1-0.7v1.7l1-0.7v1.7l1-0.7v1.7l1-0.7v1.7l1-0.7v1.7l1-0.7v1.7l1-0.7v1.7l1-0.7v1.7l1-0.7
	v1.7l1-0.7v1.7l1-0.7v1.7l1-0.7v1.7l1-0.7v1.7l1-0.7v1.7l1-0.7v1.7l1-0.7v1.7l1-0.7v1.7l1-0.7v1.7l1-0.7v1.7l1-0.7v1.7l1-0.7v1.7
	l1-0.7v1.7l1-0.7v1.7l1-0.7v1.7l1-0.7v1.7l1-0.7v1.7l1-0.7v1.7l1-0.7v1.7l1-0.7v1.7l1-0.7v1.7l1-0.7v1.7l1-0.7v1.7l1-0.7v1.7l1-0.7
	v1.7l1-0.7v1.7l1-0.7v1.7l1-0.7v1.7l1-0.7v1.7l1-0.7v1.7l1-0.7v1.7l1-0.7v1.7l1-0.7v1.7l1-0.7v1.7l1-0.7v1.7l1-0.7v1.7l1-0.7v1.7
	l1-0.7v1.7l1-0.7v1.7l1-0.7v1.7L155,495.8z"/>
<g>
	<path fill="#FEE900" d="M407,336.5H53c-6.6,0-12-5.4-12-12v-204c0-6.6,5.4-12,12-12h354c6.6,0,12,5.4,12,12v204
		C419,331.1,413.6,336.5,407,336.5z"/>
	<path fill="none" stroke="#25A69A" stroke-width="10" stroke-miterlimit="10" d="M138,164.5h196H138z"/>
	<path fill="none" stroke="#25A69A" stroke-width="10" stroke-miterlimit="10" d="M138,207.5h196H138z"/>
	<path fill="none" stroke="#25A69A" stroke-width="10" stroke-miterlimit="10" d="M138,247.5h196H138z"/>
	<polygon fill="#F6EC13" points="41,324.5 41,383.5 104,336.5 	"/>
</g>
<rect fill="none" width="512" height="512"/>
</svg>
