<?xml version="1.0" encoding="utf-8"?>
<!-- Generator: Adobe Illustrator 18.0.0, SVG Export Plug-In . SVG Version: 6.00 Build 0)  -->
<!DOCTYPE svg PUBLIC "-//W3C//DTD SVG 1.1//EN" "http://www.w3.org/Graphics/SVG/1.1/DTD/svg11.dtd">
<svg version="1.1" id="Layer_1" xmlns="http://www.w3.org/2000/svg" xmlns:xlink="http://www.w3.org/1999/xlink" x="0px" y="0px"
	 viewBox="0 0 64 64" enable-background="new 0 0 64 64" xml:space="preserve">
<path fill="none" stroke="#EC7573" stroke-width="4.7363" stroke-miterlimit="10" d="M51.6,4.4v51.9c0,2.6-2.1,4.8-4.8,4.8H12.6
	V19.3"/>
<path fill="#EC7573" d="M51.7,8.2L51.7,8.2c-1.4,0-2.4-1-2.4-2.3v-3c0-1.3,1-2.3,2.3-2.3h0.1c1.3,0,2.3,1,2.3,2.3v3
	C54,7.2,53,8.2,51.7,8.2z"/>
<path fill="#EC7573" d="M12.6,22.8L12.6,22.8c-1.4,0-2.4-1-2.4-2.3v-3c0-1.3,1-2.3,2.3-2.3h0.1c1.3,0,2.3,1,2.3,2.3v3
	C14.9,21.7,13.9,22.8,12.6,22.8z"/>
<circle fill="#EC7573" cx="12.6" cy="3.1" r="2.6"/>
<g>
	<path fill="none" stroke="#09BCD4" stroke-width="4.7363" stroke-miterlimit="10" d="M12.6,63.5"/>
</g>
</svg>
