<?xml version="1.0" encoding="utf-8"?>
<!-- Generator: Adobe Illustrator 18.0.0, SVG Export Plug-In . SVG Version: 6.00 Build 0)  -->
<!DOCTYPE svg PUBLIC "-//W3C//DTD SVG 1.1//EN" "http://www.w3.org/Graphics/SVG/1.1/DTD/svg11.dtd">
<svg version="1.1" id="Layer_1" xmlns="http://www.w3.org/2000/svg" xmlns:xlink="http://www.w3.org/1999/xlink" x="0px" y="0px"
	 viewBox="0 0 64 64" enable-background="new 0 0 64 64" xml:space="preserve">
<g>
	<path fill="none" stroke="#09BCD4" stroke-width="4.9306" stroke-miterlimit="10" d="M23,65"/>
</g>
<path fill="none" stroke="#2BBBAD" stroke-width="8.4718" stroke-miterlimit="10" d="M50.7,6.7V52c0,3.4-2.8,6.2-6.2,6.2H15.3v-38"
	/>
<path fill="#2BBBAD" d="M15.3,26.7h-0.1c-2.3,0-4.2-1.9-4.2-4.2v-5.3c0-2.3,1.9-4.2,4.2-4.2h0.1c2.3,0,4.2,1.9,4.2,4.2v5.3
	C19.5,24.9,17.6,26.7,15.3,26.7z"/>
<path fill="#2BBBAD" d="M50.8,14.7h-0.1c-2.3,0-4.2-1.9-4.2-4.2V5.2c0-2.3,1.9-4.2,4.2-4.2h0.1C53.1,1,55,2.9,55,5.2v5.3
	C55,12.8,53.1,14.7,50.8,14.7z"/>
<circle fill="#2BBBAD" cx="15.3" cy="5.2" r="4.2"/>
<g>
	<path fill="none" stroke="#09BCD4" stroke-width="4.2998" stroke-miterlimit="10" d="M15.3,60.4"/>
</g>
</svg>
