<?xml version="1.0" encoding="utf-8"?>
<!-- Generator: Adobe Illustrator 18.0.0, SVG Export Plug-In . SVG Version: 6.00 Build 0)  -->
<!DOCTYPE svg PUBLIC "-//W3C//DTD SVG 1.1//EN" "http://www.w3.org/Graphics/SVG/1.1/DTD/svg11.dtd">
<svg version="1.1" xmlns="http://www.w3.org/2000/svg" xmlns:xlink="http://www.w3.org/1999/xlink" x="0px" y="0px"
	 viewBox="0 0 512 512" enable-background="new 0 0 512 512" xml:space="preserve">
<g id="Layer_2">
	<rect fill="#FFFFFF" width="512" height="512"/>
</g>
<g id="Layer_1">
	<path fill="none" stroke="#488FCC" stroke-width="20" stroke-miterlimit="10" d="M263,492.8C128.4,492.8,19.2,383.6,19.2,249"/>
	<path fill="none" stroke="#488FCC" stroke-width="20" stroke-miterlimit="10" d="M249,19.2c134.6,0,243.8,109.1,243.8,243.8"/>
	<path fill="none" stroke="#488FCC" stroke-width="20" stroke-miterlimit="10" d="M396,265c0-104.2-56.7-195.1-141-243.8"/>
	<path fill="none" stroke="#488FCC" stroke-width="20" stroke-miterlimit="10" d="M117,249c0,104,56.7,194.8,141,243.4"/>
	<line fill="none" stroke="#488FCC" stroke-width="20" stroke-miterlimit="10" x1="256" y1="9.8" x2="256" y2="502.3"/>
	<polyline fill="none" stroke="#488FCC" stroke-width="20" stroke-miterlimit="10" points="9.7,256 113.5,256 256,256 398.4,256 
		502.3,256 	"/>
	<line fill="#FFFFFF" stroke="#488FCC" stroke-width="20" stroke-miterlimit="10" x1="247" y1="118" x2="446.9" y2="118"/>
	<line fill="#FFFFFF" stroke="#488FCC" stroke-width="20" stroke-miterlimit="10" x1="64.1" y1="392" x2="262.7" y2="392"/>
	<line fill="none" stroke="#E57373" stroke-width="30" stroke-miterlimit="10" x1="172.5" y1="208.7" x2="172.5" y2="105.6"/>
	<path fill="none" stroke="#E57373" stroke-width="30" stroke-miterlimit="10" d="M320.9,302.9v124.7c0,9.4,7.6,17,17,17h80.6"/>
	<circle fill="#E57373" cx="172.5" cy="54.2" r="15"/>
	<path fill="#E57373" d="M172.7,128.9h-0.4c-8.2,0-14.8-6.6-14.8-14.8V95.3c0-8.2,6.6-14.8,14.8-14.8h0.4c8.2,0,14.8,6.6,14.8,14.8
		v18.9C187.5,122.3,180.9,128.9,172.7,128.9z"/>
	<path fill="#E57373" d="M320.6,330.2h0.4c8.2,0,14.8-6.6,14.8-14.8v-18.9c0-8.2-6.6-14.8-14.8-14.8h-0.4c-8.2,0-14.8,6.6-14.8,14.8
		v18.9C305.9,323.6,312.5,330.2,320.6,330.2z"/>
	<path fill="#E57373" d="M172.7,225.2h-0.4c-8.2,0-14.8-6.6-14.8-14.8v-18.9c0-8.2,6.6-14.8,14.8-14.8h0.4c8.2,0,14.8,6.6,14.8,14.8
		v18.9C187.5,218.6,180.9,225.2,172.7,225.2z"/>
	<path fill="#E57373" d="M435.9,444.9v-0.4c0-8.2-6.6-14.8-14.8-14.8h-18.9c-8.2,0-14.8,6.6-14.8,14.8v0.4c0,8.2,6.6,14.8,14.8,14.8
		h18.9C429.3,459.7,435.9,453.1,435.9,444.9z"/>
</g>
</svg>
