<?xml version="1.0" encoding="utf-8"?>
<!-- Generator: Adobe Illustrator 18.0.0, SVG Export Plug-In . SVG Version: 6.00 Build 0)  -->
<!DOCTYPE svg PUBLIC "-//W3C//DTD SVG 1.1//EN" "http://www.w3.org/Graphics/SVG/1.1/DTD/svg11.dtd">
<svg version="1.1" xmlns="http://www.w3.org/2000/svg" xmlns:xlink="http://www.w3.org/1999/xlink" x="0px" y="0px"
	 viewBox="0 0 512 512" enable-background="new 0 0 512 512" xml:space="preserve">
<g id="Layer_2">
	<rect fill="#FFFFFF" width="512" height="512"/>
</g>
<g id="Layer_1">
	<path fill="none" stroke="#488FCC" stroke-width="20" stroke-miterlimit="10" d="M263,492.8C128.4,492.8,19.2,383.6,19.2,249"/>
	<path fill="none" stroke="#488FCC" stroke-width="20" stroke-miterlimit="10" d="M157.2,393.7c24.6,40.8,59.4,74.9,100.8,98.7"/>
	<path fill="none" stroke="#488FCC" stroke-width="20" stroke-miterlimit="10" d="M117,249"/>
	<line fill="none" stroke="#488FCC" stroke-width="20" stroke-miterlimit="10" x1="256" y1="9.8" x2="256" y2="502.3"/>
	<g>
		<path fill="none" stroke="#488FCC" stroke-width="20" stroke-miterlimit="10" d="M249,19.2c134.6,0,243.8,109.1,243.8,243.8"/>
		<path fill="none" stroke="#488FCC" stroke-width="20" stroke-miterlimit="10" d="M357.7,123.4C333,81,297.5,45.7,255,21.2"/>
		<polyline fill="#FFFFFF" stroke="#488FCC" stroke-width="20" stroke-miterlimit="10" points="247,118 355,118 446.9,118 		"/>
	</g>
	<g>
		<path fill="none" stroke="#488FCC" stroke-width="20" stroke-miterlimit="10" d="M262.5,19.2C127.8,19.2,18.7,128.4,18.7,263"/>
		<path fill="none" stroke="#488FCC" stroke-width="20" stroke-miterlimit="10" d="M155.6,120.3c24.6-41,59.4-75.1,100.9-99.1"/>
		<path fill="none" stroke="#488FCC" stroke-width="20" stroke-miterlimit="10" d="M115.5,265"/>
		<line fill="#FFFFFF" stroke="#488FCC" stroke-width="20" stroke-miterlimit="10" x1="264.5" y1="118" x2="64.5" y2="118"/>
	</g>
	<path fill="none" stroke="#488FCC" stroke-width="20" stroke-miterlimit="10" d="M249,492.7c134.6,0,243.8-109.1,243.8-243.8"/>
	<path fill="none" stroke="#488FCC" stroke-width="20" stroke-miterlimit="10" d="M352.5,397.2c-24.4,38.5-57.9,70.7-97.5,93.5"/>
	<path fill="none" stroke="#488FCC" stroke-width="20" stroke-miterlimit="10" d="M396,246.9"/>
	<line fill="#FFFFFF" stroke="#488FCC" stroke-width="20" stroke-miterlimit="10" x1="247" y1="391.8" x2="446.9" y2="391.8"/>
	<line fill="#FFFFFF" stroke="#488FCC" stroke-width="20" stroke-miterlimit="10" x1="64.1" y1="392" x2="262.7" y2="392"/>
	<g>
		<line fill="none" stroke="#E57373" stroke-width="30" stroke-miterlimit="10" x1="172.2" y1="316.3" x2="172.2" y2="192.5"/>
		<path fill="#E57373" d="M172.4,214.5H172c-8.2,0-14.8-6.6-14.8-14.8v-18.9c0-8.2,6.6-14.8,14.8-14.8h0.4c8.2,0,14.8,6.6,14.8,14.8
			v18.9C187.2,207.9,180.6,214.5,172.4,214.5z"/>
		<path fill="#E57373" d="M172.4,345.9H172c-8.2,0-14.8-6.6-14.8-14.8v-18.9c0-8.2,6.6-14.8,14.8-14.8h0.4c8.2,0,14.8,6.6,14.8,14.8
			v18.9C187.2,339.3,180.6,345.9,172.4,345.9z"/>
	</g>
	<g>
		<path fill="none" stroke="#E57373" stroke-width="30" stroke-miterlimit="10" d="M326,188.2v124.7c0,9.4,7.6,17,17,17h80.6"/>
		<path fill="#E57373" d="M325.8,215.4h0.4c8.2,0,14.8-6.6,14.8-14.8v-18.9c0-8.2-6.6-14.8-14.8-14.8h-0.4
			c-8.2,0-14.8,6.6-14.8,14.8v18.9C311,208.8,317.6,215.4,325.8,215.4z"/>
		<path fill="#E57373" d="M441.1,330.2v-0.4c0-8.2-6.6-14.8-14.8-14.8h-18.9c-8.2,0-14.8,6.6-14.8,14.8v0.4
			c0,8.2,6.6,14.8,14.8,14.8h18.9C434.5,345,441.1,338.3,441.1,330.2z"/>
	</g>
</g>
</svg>
