<?xml version="1.0" encoding="utf-8"?>
<!-- Generator: Adobe Illustrator 18.0.0, SVG Export Plug-In . SVG Version: 6.00 Build 0)  -->
<!DOCTYPE svg PUBLIC "-//W3C//DTD SVG 1.1//EN" "http://www.w3.org/Graphics/SVG/1.1/DTD/svg11.dtd">
<svg version="1.1" id="Layer_1" xmlns="http://www.w3.org/2000/svg" xmlns:xlink="http://www.w3.org/1999/xlink" x="0px" y="0px"
	 viewBox="0 0 64 64" enable-background="new 0 0 64 64" xml:space="preserve">
<path fill="none" stroke="#EC7573" stroke-width="6.9212" stroke-miterlimit="10" d="M51.3,5.3v50.2c0,2.6-1.9,4.6-4.4,4.6H13.7v-41
	"/>
<path fill="#EC7573" d="M17.2,20.7c0,1.9-1.5,3.4-3.4,3.4h-0.2c-1.9,0-3.4-1.5-3.4-3.4v-4.2c0-1.9,1.5-3.4,3.4-3.4h0.2
	c1.9,0,3.4,1.5,3.4,3.4V20.7z"/>
<path fill="#EC7573" d="M54.8,7.9c0,1.9-1.5,3.4-3.4,3.4h-0.2c-1.9,0-3.4-1.5-3.4-3.4V3.7c0-1.9,1.5-3.4,3.4-3.4h0.2
	c1.9,0,3.4,1.5,3.4,3.4V7.9z"/>
<circle fill="#09BCD4" cx="13.7" cy="4" r="3.6"/>
<g>
	<path fill="none" stroke="#09BCD4" stroke-width="4.6511" stroke-miterlimit="10" d="M13.4,62.8"/>
</g>
</svg>
