<?xml version="1.0" encoding="utf-8"?>
<!-- Generator: Adobe Illustrator 18.0.0, SVG Export Plug-In . SVG Version: 6.00 Build 0)  -->
<!DOCTYPE svg PUBLIC "-//W3C//DTD SVG 1.1//EN" "http://www.w3.org/Graphics/SVG/1.1/DTD/svg11.dtd">
<svg version="1.1" xmlns="http://www.w3.org/2000/svg" xmlns:xlink="http://www.w3.org/1999/xlink" x="0px" y="0px"
	 viewBox="0 0 512 512" enable-background="new 0 0 512 512" xml:space="preserve">
<g id="Layer_2">
	<rect fill="#FFFFFF" width="512" height="512"/>
</g>
<g id="Layer_1">
	<path fill="none" stroke="#488FCC" stroke-width="15" stroke-miterlimit="10" d="M261,494.8C126.4,494.8,17.2,385.6,17.2,251"/>
	<path fill="none" stroke="#488FCC" stroke-width="15" stroke-miterlimit="10" d="M252,17.2c134.6,0,243.8,109.1,243.8,243.8"/>
	<path fill="none" stroke="#488FCC" stroke-width="15" stroke-miterlimit="10" d="M396,261c0-104.2-56.7-195.1-141-243.8"/>
	<path fill="none" stroke="#488FCC" stroke-width="15" stroke-miterlimit="10" d="M117,251c0,104,56.7,194.8,141,243.4"/>
	<line fill="none" stroke="#488FCC" stroke-width="15" stroke-miterlimit="10" x1="256" y1="9.8" x2="256" y2="502.3"/>
	<polyline fill="none" stroke="#488FCC" stroke-width="15" stroke-miterlimit="10" points="9.7,256 113.5,256 256,256 398.4,256 
		502.3,256 	"/>
	<line fill="#FFFFFF" stroke="#488FCC" stroke-width="15" stroke-miterlimit="10" x1="253" y1="117" x2="452.9" y2="117"/>
	<line fill="#FFFFFF" stroke="#488FCC" stroke-width="15" stroke-miterlimit="10" x1="59.1" y1="392" x2="257.7" y2="392"/>
	<line fill="none" stroke="#E57373" stroke-width="30" stroke-miterlimit="10" x1="191.6" y1="206.3" x2="191.6" y2="103.2"/>
	<path fill="none" stroke="#E57373" stroke-width="30" stroke-miterlimit="10" d="M306.1,297.1v124.7c0,9.4,7.6,17,17,17h80.6"/>
	<circle fill="#E57373" cx="191.6" cy="51.8" r="15"/>
	<path fill="#E57373" d="M191.8,126.5h-0.4c-8.2,0-14.8-6.6-14.8-14.8V92.9c0-8.2,6.6-14.8,14.8-14.8h0.4c8.2,0,14.8,6.6,14.8,14.8
		v18.9C206.6,119.9,200,126.5,191.8,126.5z"/>
	<path fill="#E57373" d="M305.9,324.4h0.4c8.2,0,14.8-6.6,14.8-14.8v-18.9c0-8.2-6.6-14.8-14.8-14.8h-0.4c-8.2,0-14.8,6.6-14.8,14.8
		v18.9C291.1,317.8,297.8,324.4,305.9,324.4z"/>
	<path fill="#E57373" d="M191.8,222.9h-0.4c-8.2,0-14.8-6.6-14.8-14.8v-18.9c0-8.2,6.6-14.8,14.8-14.8h0.4c8.2,0,14.8,6.6,14.8,14.8
		v18.9C206.6,216.2,200,222.9,191.8,222.9z"/>
	<path fill="#E57373" d="M421.2,439.1v-0.4c0-8.2-6.6-14.8-14.8-14.8h-18.9c-8.2,0-14.8,6.6-14.8,14.8v0.4c0,8.2,6.6,14.8,14.8,14.8
		h18.9C414.6,453.9,421.2,447.3,421.2,439.1z"/>
</g>
</svg>
