<?xml version="1.0" encoding="utf-8"?>
<!-- Generator: Adobe Illustrator 18.0.0, SVG Export Plug-In . SVG Version: 6.00 Build 0)  -->
<!DOCTYPE svg PUBLIC "-//W3C//DTD SVG 1.1//EN" "http://www.w3.org/Graphics/SVG/1.1/DTD/svg11.dtd">
<svg version="1.1" id="Layer_1" xmlns="http://www.w3.org/2000/svg" xmlns:xlink="http://www.w3.org/1999/xlink" x="0px" y="0px"
	 viewBox="0 0 64 64" enable-background="new 0 0 64 64" xml:space="preserve">
<g>
	<path fill="none" stroke="#09BCD4" stroke-width="4.9306" stroke-miterlimit="10" d="M23,65"/>
</g>
<path fill="#FFFFFF" stroke="#FFFFFF" stroke-width="8.4718" stroke-miterlimit="10" d="M50.7,6.7V52c0,3.4-2.8,6.2-6.2,6.2H15.3
	v-38"/>
<path fill="#EF4438" d="M11,22.6v-5.3c0-2.3,1.9-4.2,4.2-4.2h0.1c2.3,0,4.2,1.9,4.2,4.2v5.3"/>
<path fill="#FFFFFF" d="M46.5,10.5V5.2c0-2.3,1.9-4.2,4.2-4.2h0.1C53.1,1,55,2.9,55,5.2v5.3"/>
<circle fill="#EF4438" cx="15.3" cy="5.2" r="4.2"/>
<g>
	<path fill="none" stroke="#09BCD4" stroke-width="4.2998" stroke-miterlimit="10" d="M15.3,60.4"/>
</g>
<polygon fill="#EF4438" points="19.5,54 11,62.4 11,17.2 19.5,17.2 "/>
</svg>
