<?xml version="1.0" encoding="utf-8"?>
<!-- Generator: Adobe Illustrator 18.0.0, SVG Export Plug-In . SVG Version: 6.00 Build 0)  -->
<!DOCTYPE svg PUBLIC "-//W3C//DTD SVG 1.1//EN" "http://www.w3.org/Graphics/SVG/1.1/DTD/svg11.dtd">
<svg version="1.1" id="Layer_1" xmlns="http://www.w3.org/2000/svg" xmlns:xlink="http://www.w3.org/1999/xlink" x="0px" y="0px"
	 viewBox="0 0 512 512" enable-background="new 0 0 512 512" xml:space="preserve">
<g>
	<path fill="none" stroke="#09BCD4" stroke-width="4.9306" stroke-miterlimit="10" d="M184,520"/>
</g>
<path fill="none" stroke="#2196F3" stroke-width="67" stroke-miterlimit="10" d="M405.6,53.6V416c0,27.2-22.4,49.6-49.6,49.6H122.4
	v-304"/>
<path fill="#2196F3" d="M88.9,180.2v-41.8c0-18.1,15-33.1,33.1-33.1h0.8c18.1,0,33.1,15,33.1,33.1v41.8"/>
<path fill="#2196F3" d="M372.1,83.4V41.7c0-18.1,15-33.1,33.1-33.1h0.8c18.1,0,33.1,15,33.1,33.1v41.8"/>
<circle fill="#2196F3" cx="122.4" cy="41.6" r="33.5"/>
<g>
	<path fill="none" stroke="#09BCD4" stroke-width="4.2998" stroke-miterlimit="10" d="M122.4,483.2"/>
</g>
<polygon fill="#2196F3" points="155.9,431.9 88.9,498.4 88.9,140.6 155.9,140.6 "/>
</svg>
